<?xml version="1.0" encoding="utf-8"?>
<!-- Generator: Adobe Illustrator 25.2.1, SVG Export Plug-In . SVG Version: 6.00 Build 0)  -->
<svg version="1.1" id="Calque_1" xmlns="http://www.w3.org/2000/svg" xmlns:xlink="http://www.w3.org/1999/xlink" x="0px" y="0px"
	 viewBox="0 0 2500 1400" style="enable-background:new 0 0 2500 1400;" xml:space="preserve">
<style type="text/css">
	.st0{fill:url(#SVGID_1_);}
	.st1{fill:#63FFFF;}
	.st2{opacity:0.7;}
	.st3{display:none;fill:url(#SVGID_2_);}
	.st4{fill:url(#SVGID_3_);}
	.st5{fill:url(#SVGID_4_);}
	.st6{fill:url(#SVGID_5_);}
	.st7{fill:url(#SVGID_6_);}
	.st8{fill:url(#SVGID_7_);}
	.st9{fill:url(#SVGID_8_);}
	.st10{clip-path:url(#SVGID_10_);fill:#31B39F;}
	.st11{clip-path:url(#SVGID_12_);fill:#31B39F;}
	.st12{clip-path:url(#SVGID_14_);fill:#31B39F;}
	.st13{clip-path:url(#SVGID_16_);fill:#31B39F;}
	.st14{clip-path:url(#SVGID_18_);fill:#31B39F;}
	.st15{clip-path:url(#SVGID_20_);fill:#31B39F;}
</style>
<g id="premier_plan">
	<g>
		
			<linearGradient id="SVGID_1_" gradientUnits="userSpaceOnUse" x1="1248.5016" y1="998.257" x2="1251.4364" y2="431.8383" gradientTransform="matrix(1 0 0 1 0 697.89)">
			<stop  offset="0.4303" style="stop-color:#031E19"/>
			<stop  offset="0.4807" style="stop-color:#04231D"/>
			<stop  offset="0.5394" style="stop-color:#06312A"/>
			<stop  offset="0.6023" style="stop-color:#09483E"/>
			<stop  offset="0.6682" style="stop-color:#0D695B"/>
			<stop  offset="0.7363" style="stop-color:#139380"/>
			<stop  offset="0.8055" style="stop-color:#1AC6AD"/>
			<stop  offset="0.8215" style="stop-color:#1CD3B8"/>
		</linearGradient>
		<polygon class="st0" points="1895.7,1407.7 1882.5,1407.7 612.1,1406.2 604.3,1406.2 608.5,1403.2 648,1374.6 791.4,1320.3 
			798.8,1310.8 1000.5,1239.6 1230.2,1214 1294,1227.2 1379.9,1225 1452.5,1244.5 1538.1,1255.3 1553.8,1263.1 1635.9,1274.1 
			1889.8,1404.7 		"/>
		<path class="st1" d="M1889.8,1404.7h-7.3L1633,1277l-82.2-9.5l-16.9-11l-80-8.1l-74.8-20.5l-85.1,2.2l-64.6-14.7l-223.8,27.9
			L803.9,1310l-6.6,10.3l-144.5,55c0,0-18,12.6-40.6,27.9h-3.7l39.5-28.6l143.4-54.3l7.3-9.5l201.8-71.2l229.7-25.7l63.8,13.2
			l85.8-2.2l72.6,19.6l85.6,10.8l15.7,7.8l82.2,11L1889.8,1404.7z"/>
		<g class="st2">
			
				<linearGradient id="SVGID_2_" gradientUnits="userSpaceOnUse" x1="1214.5363" y1="827.2512" x2="1219.8046" y2="435.6415" gradientTransform="matrix(1 0 0 1 0 697.89)">
				<stop  offset="0.4303" style="stop-color:#02100E"/>
				<stop  offset="0.5439" style="stop-color:#021512"/>
				<stop  offset="0.6763" style="stop-color:#03231E"/>
				<stop  offset="0.8176" style="stop-color:#043A31"/>
				<stop  offset="0.8215" style="stop-color:#043B32"/>
			</linearGradient>
			<path class="st3" d="M1044,1408.3l135.8-144.4l52.9,0.7c0,0,6.8,44.3,10.6,44.2c3.2-0.1,16.8-43.8,16.8-43.8l59.7,0.8l68.4,143.7
				L1044,1408.3z"/>
			
				<linearGradient id="SVGID_3_" gradientUnits="userSpaceOnUse" x1="1655.9291" y1="83.553" x2="1658.1302" y2="406.0289" gradientTransform="matrix(0.9756 -0.2195 0.2195 0.9756 -205.5761 1459.7517)">
				<stop  offset="0.4303" style="stop-color:#02100E"/>
				<stop  offset="0.5439" style="stop-color:#021512"/>
				<stop  offset="0.6763" style="stop-color:#03231E"/>
				<stop  offset="0.8176" style="stop-color:#043A31"/>
				<stop  offset="0.8215" style="stop-color:#043B32"/>
			</linearGradient>
			<polygon class="st4" points="1413.1,1442.2 1402.4,1355.1 1481.8,1338.8 1563.7,1431.2 			"/>
			<g>
				
					<linearGradient id="SVGID_4_" gradientUnits="userSpaceOnUse" x1="1120.3057" y1="457.0585" x2="1122.83" y2="826.8755" gradientTransform="matrix(1 0 0 1 0 697.89)">
					<stop  offset="0.4303" style="stop-color:#02100E"/>
					<stop  offset="0.5439" style="stop-color:#021512"/>
					<stop  offset="0.6763" style="stop-color:#03231E"/>
					<stop  offset="0.8176" style="stop-color:#043A31"/>
					<stop  offset="0.8215" style="stop-color:#043B32"/>
				</linearGradient>
				<polygon class="st5" points="1100.2,1425.6 1124.1,1375.3 1139.7,1374.1 1144.1,1424.7 				"/>
			</g>
			
				<linearGradient id="SVGID_5_" gradientUnits="userSpaceOnUse" x1="878.6337" y1="550.9282" x2="881.8843" y2="1027.1635" gradientTransform="matrix(0.9957 9.310000e-02 -9.310000e-02 0.9957 132.8919 443.2505)">
				<stop  offset="0.4303" style="stop-color:#02100E"/>
				<stop  offset="0.5439" style="stop-color:#021512"/>
				<stop  offset="0.6763" style="stop-color:#03231E"/>
				<stop  offset="0.8176" style="stop-color:#043A31"/>
				<stop  offset="0.8215" style="stop-color:#043B32"/>
			</linearGradient>
			<polygon class="st6" points="835.9,1415.9 933.9,1344.3 1022.2,1364.1 1001.8,1431.7 			"/>
			
				<linearGradient id="SVGID_6_" gradientUnits="userSpaceOnUse" x1="791.0952" y1="487.3729" x2="793.2964" y2="809.8487" gradientTransform="matrix(1 0 0 1 0 697.89)">
				<stop  offset="0.4303" style="stop-color:#02100E"/>
				<stop  offset="0.5439" style="stop-color:#021512"/>
				<stop  offset="0.6763" style="stop-color:#03231E"/>
				<stop  offset="0.8176" style="stop-color:#043A31"/>
				<stop  offset="0.8215" style="stop-color:#043B32"/>
			</linearGradient>
			<polygon class="st7" points="888.5,1307.6 890.9,1316.1 756,1444.1 693.8,1422.1 			"/>
			
				<linearGradient id="SVGID_7_" gradientUnits="userSpaceOnUse" x1="1596.9897" y1="481.872" x2="1599.1909" y2="804.3478" gradientTransform="matrix(1 0 0 1 0 697.89)">
				<stop  offset="0.4303" style="stop-color:#02100E"/>
				<stop  offset="0.5439" style="stop-color:#021512"/>
				<stop  offset="0.6763" style="stop-color:#03231E"/>
				<stop  offset="0.8176" style="stop-color:#043A31"/>
				<stop  offset="0.8215" style="stop-color:#043B32"/>
			</linearGradient>
			<polygon class="st8" points="1595.2,1436.6 1644,1431.9 1572.4,1355.5 1552.9,1355.5 			"/>
			
				<linearGradient id="SVGID_8_" gradientUnits="userSpaceOnUse" x1="1696.3986" y1="481.1934" x2="1698.5997" y2="803.6692" gradientTransform="matrix(1 0 0 1 0 697.89)">
				<stop  offset="0.4303" style="stop-color:#02100E"/>
				<stop  offset="0.5439" style="stop-color:#021512"/>
				<stop  offset="0.6763" style="stop-color:#03231E"/>
				<stop  offset="0.8176" style="stop-color:#043A31"/>
				<stop  offset="0.8215" style="stop-color:#043B32"/>
			</linearGradient>
			<polygon class="st9" points="1609.9,1310.7 1707.6,1419.9 1785.5,1428.8 1626.7,1310.7 			"/>
		</g>
		<g>
			<g>
				<polygon points="1572.5,1355.6 1567.1,1360.9 1552.9,1355.6 1558.1,1343.6 1563.4,1342.8 				"/>
				<g>
					<g>
						<g>
							<defs>
								<polygon id="SVGID_9_" points="1572.5,1355.6 1567.1,1360.9 1552.9,1355.6 1558.1,1343.6 1563.4,1342.8 								"/>
							</defs>
							<clipPath id="SVGID_10_">
								<use xlink:href="#SVGID_9_"  style="overflow:visible;"/>
							</clipPath>
							<polygon class="st10" points="1552.2,1358.5 1558.8,1344.9 1562.8,1344 1576.6,1361.8 1576.2,1357.8 1564.7,1340.3 
								1556,1341.3 1550.5,1356.8 							"/>
						</g>
					</g>
				</g>
			</g>
			<g>
				<polygon points="1632.6,1315.2 1610.4,1311.3 1597.9,1301.8 1606.2,1296.9 1610.4,1290.8 1621.4,1290.8 1631.9,1304.2 				"/>
				<g>
					<g>
						<g>
							<defs>
								<polygon id="SVGID_11_" points="1632.6,1315.2 1610.4,1311.3 1597.9,1301.8 1606.2,1296.9 1610.4,1290.8 1621.4,1290.8 
									1631.9,1304.2 								"/>
							</defs>
							<clipPath id="SVGID_12_">
								<use xlink:href="#SVGID_11_"  style="overflow:visible;"/>
							</clipPath>
							<polygon class="st11" points="1596.4,1304.1 1607.4,1297.8 1610.9,1292 1620.8,1291.8 1628.5,1298.6 1621.9,1288.9 
								1609.2,1288.5 1605.7,1295.6 1595.5,1301.3 							"/>
						</g>
					</g>
				</g>
			</g>
			<g>
				<polygon points="890.7,1316.3 884,1316.1 885.2,1303.5 889.2,1300.2 901.5,1303.5 900,1308.6 				"/>
				<g>
					<g>
						<g>
							<defs>
								<polygon id="SVGID_13_" points="890.7,1316.3 884,1316.1 885.2,1303.5 889.2,1300.2 901.5,1303.5 900,1308.6 								"/>
							</defs>
							<clipPath id="SVGID_14_">
								<use xlink:href="#SVGID_13_"  style="overflow:visible;"/>
							</clipPath>
							<polygon class="st12" points="883.9,1305.3 889.4,1300.7 900.9,1303.8 899.6,1308.2 889.3,1317.5 901.1,1308.8 902.8,1302.7 
								888.9,1299 883.4,1303.5 							"/>
						</g>
					</g>
				</g>
			</g>
			<g>
				<polygon points="1139.8,1374.1 1133.2,1377.3 1124,1375.4 1127,1367.2 1132.4,1364.1 1138.4,1367.9 				"/>
				<g>
					<g>
						<g>
							<defs>
								<polygon id="SVGID_15_" points="1139.8,1374.1 1133.2,1377.3 1124,1375.4 1127,1367.2 1132.4,1364.1 1138.4,1367.9 								
									"/>
							</defs>
							<clipPath id="SVGID_16_">
								<use xlink:href="#SVGID_15_"  style="overflow:visible;"/>
							</clipPath>
							<path class="st13" d="M1123.2,1378c0-0.4,4.5-10.6,4.5-10.6l4.7-2.7l5.1,3.4l2.3,8.9l1.9-4.4l-3.8-7l-5.2-3.3l-7.2,3.8
								L1123.2,1378z"/>
						</g>
					</g>
				</g>
			</g>
			<g>
				<polygon points="1022.3,1364.2 967.3,1376.4 924.6,1360.9 934.9,1313.7 980.4,1287.7 1006,1305.9 				"/>
				<g>
					<g>
						<g>
							<defs>
								<polygon id="SVGID_17_" points="1022.3,1364.2 967.3,1376.4 924.6,1360.9 934.9,1313.7 980.4,1287.7 1006,1305.9 								
									"/>
							</defs>
							<clipPath id="SVGID_18_">
								<use xlink:href="#SVGID_17_"  style="overflow:visible;"/>
							</clipPath>
							<polygon class="st14" points="923.2,1369.1 936.8,1315.3 980.2,1290.4 1003.7,1307.1 1023.6,1369.6 1010,1300 979.2,1282.2 
								931.7,1309.7 							"/>
						</g>
					</g>
				</g>
			</g>
			<g>
				<polygon points="1482.4,1339.6 1442.5,1357.8 1402.4,1355.1 1412.1,1310.5 1423.4,1304 1439.4,1304.1 1457.1,1325.7 
					1467.7,1316.8 1479.2,1325.4 				"/>
				<g>
					<g>
						<g>
							<defs>
								<polygon id="SVGID_19_" points="1482.4,1339.6 1442.5,1357.8 1402.4,1355.1 1412.1,1310.5 1423.4,1304 1439.4,1304.1 
									1457.1,1325.7 1467.7,1316.8 1479.2,1325.4 								"/>
							</defs>
							<clipPath id="SVGID_20_">
								<use xlink:href="#SVGID_19_"  style="overflow:visible;"/>
							</clipPath>
							<polygon class="st15" points="1400.7,1359.3 1402.8,1356.5 1413.1,1311.2 1423.3,1305.1 1438.6,1304.9 1456.9,1327.9 
								1462,1331.5 1458.1,1326.9 1468,1318.1 1478.2,1325.9 1482.1,1334.4 1481.9,1322.3 1469.6,1315.3 1458,1323.1 1440.7,1302.5 
								1423.2,1301.9 1410.2,1309.6 							"/>
						</g>
					</g>
				</g>
			</g>
		</g>
	</g>
</g>
</svg>
