<svg width="32" height="36" viewBox="0 0 32 36" fill="none" xmlns="http://www.w3.org/2000/svg">
<path d="M26.6609 11.2465V13.4118C24.7015 12.0481 22.327 11.2465 19.7629 11.2465C13.0566 11.2465 7.61862 16.7202 7.61862 23.4706C7.61862 30.221 13.0566 35.6948 19.7629 35.6948C22.327 35.6948 24.7015 34.8931 26.6609 33.5295V35.6948H31.9071V11.2465H26.6609ZM19.7629 30.4098C15.962 30.4098 12.8691 27.2965 12.8691 23.4706C12.8691 19.6447 15.962 16.5314 19.7629 16.5314C23.5659 16.5314 26.6567 19.6447 26.6567 23.4706C26.6567 27.2965 23.5659 30.4098 19.7629 30.4098Z" fill="#662483"/>
<path d="M23.4647 5.3295C23.4795 6.35384 23.1297 7.2382 22.4176 7.97411C22.249 8.14802 22.0721 8.30283 21.8867 8.43644C22.0847 8.08439 22.2006 7.6772 22.2006 7.24244C22.2006 6.95402 22.1332 6.67408 22.0299 6.41322C21.9794 6.27537 21.9161 6.14388 21.8403 6.01876C21.8382 6.01451 21.8361 6.01027 21.834 6.00603C21.6949 5.76214 21.5348 5.54582 21.3873 5.36768C20.5445 4.35607 19.982 4.35607 19.7966 4.35607C19.6112 4.35607 19.0486 4.35607 18.2059 5.36768C18.0773 5.52037 17.9425 5.70276 17.8182 5.90636C17.8182 5.90636 17.8182 5.90636 17.8182 5.90848C17.7044 6.07602 17.6159 6.25416 17.5506 6.44291C17.5485 6.44715 17.5464 6.4514 17.5464 6.45564C17.4516 6.70377 17.3905 6.97098 17.3905 7.24457C17.3905 7.70265 17.5169 8.13105 17.736 8.49582C17.5485 8.36858 17.3673 8.22012 17.1946 8.05258C16.4613 7.33576 16.0863 6.46412 16.0716 5.43766C16.0568 4.41333 16.3981 3.53109 17.0934 2.79306C17.7908 2.05503 18.6652 1.67753 19.7165 1.66268C20.7342 1.64784 21.6128 1.99989 22.346 2.71671C23.075 3.43141 23.45 4.30305 23.4647 5.3295Z" fill="#662483"/>
<path d="M21.1155 7.24245C21.1155 7.97836 20.5235 8.5743 19.7924 8.5743C19.0613 8.5743 18.4692 7.97836 18.4692 7.24245C18.4692 6.50654 19.5269 5.44827 19.7924 5.44827C20.0579 5.44827 21.1155 6.50654 21.1155 7.24245Z" fill="#00A199"/>
<path d="M13.7413 6.05056C14.2617 6.93069 14.3987 7.87231 14.148 8.86696C14.089 9.10236 14.0131 9.32504 13.9183 9.535C13.9162 9.12993 13.813 8.7185 13.596 8.34312C13.4527 8.09287 13.2546 7.88504 13.0355 7.71113C12.9238 7.61782 12.8038 7.53511 12.6752 7.46512C12.671 7.463 12.6668 7.46088 12.6626 7.45876C12.4224 7.31879 12.1759 7.21063 11.9589 7.13216C10.7263 6.68256 10.2396 6.96462 10.0795 7.05793C9.91939 7.15125 9.43269 7.43331 9.20304 8.73335C9.16933 8.93058 9.14194 9.15538 9.13351 9.39503C9.13351 9.39503 9.13351 9.39503 9.13351 9.39715C9.11876 9.60074 9.12929 9.8001 9.16722 9.99309C9.16722 9.99733 9.16933 10.0016 9.16933 10.0079C9.21146 10.2709 9.29153 10.5318 9.42637 10.7693C9.65392 11.1659 9.97627 11.4734 10.3471 11.6791C10.1195 11.6643 9.88989 11.6261 9.65813 11.5667C8.66788 11.3143 7.90939 10.7481 7.38688 9.86796C6.86647 8.98784 6.7232 8.05258 6.95707 7.0643C7.19515 6.07389 7.76401 5.30617 8.66788 4.76537C9.54225 4.24154 10.4777 4.10369 11.4701 4.35394C12.4603 4.60207 13.2188 5.16832 13.7413 6.05056Z" fill="#662483"/>
<path d="M12.6584 8.89029C13.0229 9.52652 12.808 10.343 12.1738 10.7099C11.5396 11.0768 10.7305 10.8584 10.3661 10.2221C10.0016 9.5859 10.3913 8.13529 10.621 8.00168C10.8506 7.86807 12.2918 8.25405 12.6584 8.89029Z" fill="#00A199"/>
<path d="M5.52647 11.4564C6.41558 11.9548 7.00131 12.7034 7.27731 13.6917C7.34263 13.925 7.38687 14.1583 7.41005 14.3873C7.20568 14.0374 6.91282 13.7341 6.53989 13.5178C6.29128 13.3736 6.01738 13.2909 5.74137 13.2527C5.5981 13.2273 5.45272 13.2167 5.30735 13.2209C5.30313 13.2209 5.29892 13.2209 5.2926 13.2209C5.01449 13.2209 4.74691 13.2506 4.51936 13.2909C3.22782 13.522 2.9476 14.0119 2.8549 14.1731C2.76219 14.3343 2.48197 14.8242 2.92864 16.0649C2.99606 16.2536 3.08455 16.4636 3.19833 16.6714C3.19833 16.6714 3.19833 16.6714 3.19833 16.6735C3.28682 16.8559 3.39427 17.0234 3.5249 17.1719C3.527 17.1761 3.53122 17.1783 3.53333 17.1825C3.69977 17.3903 3.89782 17.5748 4.1338 17.7106C4.52779 17.9396 4.95971 18.0435 5.3832 18.0351C5.17883 18.1347 4.96181 18.2196 4.73005 18.2853C3.74823 18.5653 2.81065 18.4571 1.91943 17.9566C1.03031 17.4561 0.442481 16.7181 0.155941 15.7446C-0.1306 14.7669 -0.0189334 13.8168 0.495154 12.8922C0.992386 11.9972 1.73402 11.4076 2.71795 11.1277C3.69766 10.8477 4.63524 10.9559 5.52647 11.4564Z" fill="#662483"/>
<path d="M5.9984 14.4615C6.63048 14.8284 6.8496 15.6449 6.48299 16.2812C6.11639 16.9174 5.30734 17.1358 4.67526 16.7689C4.04319 16.402 3.65973 14.9493 3.79246 14.7181C3.9252 14.487 5.36633 14.0925 5.9984 14.4615Z" fill="#00A199"/>
</svg>
