<?xml version="1.0" encoding="utf-8"?>
<!-- Generator: Adobe Illustrator 25.2.1, SVG Export Plug-In . SVG Version: 6.00 Build 0)  -->
<svg version="1.1" id="Calque_1" xmlns="http://www.w3.org/2000/svg" xmlns:xlink="http://www.w3.org/1999/xlink" x="0px" y="0px"
	 viewBox="0 0 713.8 756.5" style="enable-background:new 0 0 713.8 756.5;" xml:space="preserve">
<style type="text/css">
	.st0{fill:#FFFFFF;}
	.st1{fill:#00A199;}
</style>
<g id="Calque_2_1_">
	<g id="Texte">
		<path class="st0" d="M596.5,213.1v48.1c-45.3-31.4-99.2-48.2-154.3-48.1c-150,0-271.7,121.7-271.7,271.7s121.7,271.7,271.7,271.7
			c55.2,0.1,109-16.7,154.3-48.1v48.1h117.4V213.1H596.5z M442.1,639c-85,0-154.2-69.2-154.2-154.2s69.2-154.2,154.2-154.2
			s154.2,69.2,154.2,154.2S527.2,639,442.1,639z"/>
		<path class="st0" d="M525,81.6c0.3,22.8-7.5,42.4-23.4,58.8c-3.7,3.8-7.6,7.2-11.9,10.3c4.6-8.1,7-17.2,7-26.6
			c-0.1-6.3-1.4-12.6-3.8-18.4c-1.1-3.1-2.5-6-4.2-8.8c-0.1-0.1-0.1-0.2-0.2-0.3c-2.9-5-6.3-9.8-10-14.2C459.5,60,447,60,442.8,60
			s-16.7,0-35.6,22.5c-3.2,3.8-6.1,7.8-8.7,12l0,0c-2.5,3.7-4.5,7.7-6,11.9c0,0.1-0.1,0.2-0.1,0.3c-2.2,5.6-3.4,11.5-3.4,17.5
			c0,9.8,2.7,19.4,7.8,27.8c-4.3-2.9-8.4-6.2-12.1-9.9c-16.4-15.9-24.8-35.3-25.1-58.1c-0.3-22.8,7.3-42.4,22.9-58.8
			C397.9,8.7,417.5,0.4,441,0c22.8-0.3,42.4,7.5,58.8,23.4S524.7,58.8,525,81.6z"/>
		<path class="st1" d="M472.4,124.1c0.3,16.4-12.7,29.8-29.1,30.1c-16.4,0.3-29.8-12.7-30.1-29.1c0-0.4,0-0.7,0-1.1
			c0-16.3,23.7-39.9,29.6-39.9S472.4,107.8,472.4,124.1z"/>
		<path class="st0" d="M307.4,97.6c11.7,19.5,14.7,40.5,9.1,62.6c-1.3,5.1-3,10.1-5.2,14.9c-0.1-9.3-2.5-18.4-7.2-26.5
			c-3.2-5.4-7.5-10.2-12.5-14.1c-2.5-2.1-5.2-3.9-8.1-5.5c-0.1,0-0.2-0.1-0.3-0.2c-5-2.9-10.3-5.3-15.8-7.3
			c-27.6-10-38.5-3.7-42.1-1.7s-14.5,8.4-19.6,37.2c-0.9,4.9-1.4,9.8-1.5,14.7l0,0c-0.3,4.4-0.1,8.9,0.8,13.3c0,0.1,0,0.2,0,0.3
			c0.9,5.9,2.8,11.7,5.8,16.9c4.9,8.5,12,15.5,20.6,20.2c-5.2-0.4-10.4-1.2-15.4-2.5c-22.2-5.6-39.1-18.2-50.8-37.8
			c-11.7-19.6-14.9-40.4-9.6-62.3c5.3-22,18.1-39,38.3-51.1c19.6-11.7,40.5-14.7,62.7-9.1S295.8,78,307.4,97.6z"/>
		<path class="st1" d="M283.2,160.7c8.2,14.2,3.3,32.3-10.8,40.4s-32.3,3.3-40.4-10.8l0,0c-8.2-14.1,0.6-46.4,5.7-49.3
			S275,146.6,283.2,160.7z"/>
		<path class="st0" d="M123.6,217.8c19.9,11.1,32.9,27.6,39.2,49.7c1.4,5.1,2.5,10.2,3,15.5c-4.7-8-11.4-14.7-19.5-19.3
			c-5.5-3.1-11.6-5.1-17.9-5.9c-3.2-0.6-6.5-0.8-9.7-0.7c-0.1,0-0.2,0-0.3,0c-5.8,0-11.6,0.5-17.3,1.6c-28.9,5.1-35.2,16-37.2,19.6
			s-8.4,14.5,1.7,42c1.7,4.6,3.7,9.2,6,13.5l0,0c1.9,4,4.4,7.7,7.3,11.1L79,345c3.7,4.7,8.3,8.7,13.4,11.8
			c8.5,4.9,18.1,7.4,27.9,7.2c-4.7,2.3-9.6,4.1-14.6,5.6c-22,6.2-43,3.8-62.9-7.3S9.8,334.8,3.5,313.1c-6.4-21.7-3.9-42.9,7.6-63.4
			c11.1-19.9,27.7-33,49.7-39.2C82.8,204.2,103.7,206.6,123.6,217.8z"/>
		<path class="st1" d="M134.2,284.5c14.2,8.2,19,26.3,10.8,40.4s-26.3,19-40.4,10.8l0,0c-14.2-8.2-22.7-40.4-19.7-45.6
			S120,276.4,134.2,284.5z"/>
	</g>
</g>
</svg>
