<svg width="1250" height="215" viewBox="0 0 1250 215" fill="none" xmlns="http://www.w3.org/2000/svg">
<g clip-path="url(#clip0)">
<path d="M421 0L396.13 7.35V168.35H421V0Z" fill="white"/>
<path d="M470.87 53.03H445.97V168.31H470.87V53.03Z" fill="white"/>
<path d="M1051.24 78C1057.71 78 1064.04 79.919 1069.42 83.5143C1074.8 87.1096 1078.99 92.2198 1081.47 98.1986C1083.95 104.177 1084.59 110.756 1083.33 117.103C1082.07 123.45 1078.95 129.281 1074.38 133.857C1069.8 138.433 1063.97 141.549 1057.62 142.811C1051.28 144.074 1044.7 143.426 1038.72 140.949C1032.74 138.473 1027.63 134.279 1024.03 128.898C1020.44 123.517 1018.52 117.191 1018.52 110.72C1018.53 102.045 1021.98 93.7267 1028.11 87.5922C1034.25 81.4578 1042.56 78.0079 1051.24 78V78ZM1051.24 53.08C1039.84 53.08 1028.7 56.4605 1019.22 62.7941C1009.74 69.1277 1002.35 78.1298 997.988 88.6621C993.625 99.1945 992.484 110.784 994.708 121.965C996.932 133.146 1002.42 143.417 1010.48 151.478C1018.54 159.539 1028.81 165.028 1040 167.252C1051.18 169.477 1062.77 168.335 1073.3 163.972C1083.83 159.61 1092.83 152.222 1099.17 142.743C1105.5 133.264 1108.88 122.12 1108.88 110.72C1108.89 103.144 1107.41 95.639 1104.52 88.636C1101.63 81.633 1097.38 75.2688 1092.03 69.9077C1086.68 64.5466 1080.32 60.2938 1073.32 57.3925C1066.32 54.4913 1058.82 52.9987 1051.24 53V53.08Z" fill="white"/>
<path d="M354.57 68.5599C349.609 63.545 343.685 59.5843 337.155 56.9156C330.625 54.2469 323.624 52.9252 316.57 53.0299C300.8 53.0299 287.29 58.4699 276.41 69.2099C265.53 79.9499 260 93.9999 260 110.88C260 127.76 265.52 141.57 276.41 152.24C281.547 157.416 287.673 161.506 294.423 164.266C301.172 167.027 308.408 168.402 315.7 168.31C327.94 168.31 338.78 165.39 347.91 159.62C357.04 153.85 363.91 145.19 368.31 133.94L368.81 132.66L367.47 132.38L347.42 128.06L346.53 127.87L346.13 128.68C340.13 140.68 330.13 146.57 315.7 146.57C307.963 146.614 300.514 143.636 294.94 138.27C289.28 133 285.84 125.93 284.69 117.27H371.19V108.3C370.61 92.2099 365 78.8599 354.57 68.5599ZM316.57 75.1899C323.421 75.0332 330.106 77.3076 335.44 81.6099C340.36 85.6099 343.74 91.4499 345.51 98.9399H285.46C286.929 92.0761 290.882 85.997 296.56 81.8699C302.335 77.5433 309.354 75.2 316.57 75.1899V75.1899Z" fill="white"/>
<path d="M589.2 68.56C584.238 63.5465 578.314 59.5867 571.785 56.9181C565.255 54.2495 558.253 52.927 551.2 53.03C535.44 53.03 521.93 58.47 511.05 69.21C500.17 79.95 494.63 94 494.63 110.88C494.63 127.76 500.15 141.57 511.04 152.24C516.177 157.416 522.303 161.506 529.053 164.266C535.802 167.027 543.038 168.402 550.33 168.31C562.57 168.31 573.41 165.39 582.53 159.62C591.65 153.85 598.53 145.19 602.94 133.94L603.43 132.66L602.09 132.38L582.09 128.06L581.2 127.87L580.8 128.68C574.8 140.68 564.8 146.57 550.37 146.57C542.633 146.615 535.184 143.637 529.61 138.27C523.95 133 520.5 125.93 519.35 117.27H605.86V108.3C605.23 92.21 599.64 78.86 589.2 68.56ZM551.2 75.19C558.055 75.0309 564.744 77.3055 570.08 81.61C575 85.61 578.38 91.45 580.15 98.94H520.15C521.616 92.0747 525.57 85.9944 531.25 81.87C537.005 77.557 543.998 75.2144 551.19 75.19H551.2Z" fill="white"/>
<path d="M250 53.03H221.53H221.42V20.76L196.52 28.12V53.03H175.31V77.01H196.52L196.64 168.31H221.53V168.18V77.01H250V53.03Z" fill="white"/>
<path d="M943.81 53V63.24C935.16 57.2701 925.043 53.7792 914.552 53.145C904.062 52.5108 893.597 54.7574 884.291 59.6418C874.986 64.5261 867.193 71.8622 861.756 80.8564C856.319 89.8505 853.445 100.16 853.445 110.67C853.445 121.18 856.319 131.49 861.756 140.484C867.193 149.478 874.986 156.814 884.291 161.698C893.597 166.583 904.062 168.829 914.552 168.195C925.043 167.561 935.16 164.07 943.81 158.1V168.3H968.71V53H943.81ZM911.07 143.36C904.599 143.36 898.273 141.441 892.892 137.846C887.511 134.25 883.317 129.14 880.841 123.161C878.364 117.183 877.716 110.604 878.979 104.257C880.241 97.9096 883.358 92.0794 887.934 87.5035C892.51 82.9275 898.34 79.8112 904.687 78.5487C911.034 77.2862 917.613 77.9342 923.591 80.4107C929.57 82.8872 934.68 87.081 938.276 92.4617C941.871 97.8425 943.79 104.169 943.79 110.64C943.787 119.32 940.34 127.644 934.206 133.784C928.071 139.925 919.75 143.379 911.07 143.39V143.36Z" fill="white"/>
<path d="M1249 109.93C1248.9 101.935 1247.14 94.0488 1243.82 86.7725C1240.51 79.4961 1235.72 72.9888 1229.75 67.6645C1223.79 62.3402 1216.78 58.3153 1209.17 55.8458C1201.57 53.3762 1193.54 52.5161 1185.58 53.32C1180.77 53.8011 1176.03 54.8897 1171.49 56.56C1169.24 57.3905 1167.04 58.359 1164.9 59.46C1162.72 60.57 1160.75 61.96 1158.66 63.21V53H1133.74V168.31H1158.66V116C1158.66 109.11 1158.57 102.18 1160.86 95.56C1162.77 89.7855 1166.79 84.9435 1172.11 82C1177.72 79 1184.28 78.08 1190.59 78C1195.97 77.9076 1201.29 79.1236 1206.09 81.5433C1210.89 83.963 1215.03 87.5138 1218.16 91.89C1221.27 96.2919 1223.23 101.393 1223.89 106.74C1224.09 108.76 1224.18 110.79 1224.13 112.82V168.36H1249V117.94C1249 115.28 1249.16 112.58 1249 109.93Z" fill="white"/>
<path d="M770.89 52.9999C759.19 52.9816 747.765 56.5445 738.15 63.2099V52.9999H713.25V214.42H738.15V158.1C745.589 163.227 754.128 166.533 763.08 167.753C772.032 168.972 781.145 168.07 789.684 165.119C798.223 162.169 805.949 157.253 812.238 150.767C818.527 144.282 823.204 136.409 825.891 127.783C828.578 119.158 829.2 110.021 827.706 101.111C826.213 92.2011 822.646 83.7669 817.293 76.489C811.941 69.2111 804.952 63.2934 796.892 59.2132C788.831 55.133 779.924 53.0047 770.89 52.9999V52.9999ZM770.89 143.36C764.419 143.36 758.093 141.441 752.712 137.846C747.331 134.25 743.137 129.14 740.661 123.161C738.184 117.183 737.536 110.604 738.799 104.257C740.061 97.9095 743.178 92.0794 747.753 87.5034C752.329 82.9274 758.16 79.8112 764.507 78.5487C770.854 77.2861 777.433 77.9341 783.411 80.4106C789.39 82.8871 794.5 87.0809 798.096 92.4617C801.691 97.8425 803.61 104.169 803.61 110.64C803.607 119.32 800.16 127.644 794.025 133.784C787.891 139.925 779.57 143.379 770.89 143.39V143.36Z" fill="white"/>
<path d="M655.64 63.22V53H630.72V168.3H655.64V110.67C655.64 84.56 670.31 77.95 688.35 77.95V53C676.66 52.9933 665.247 56.5592 655.64 63.22Z" fill="white"/>
<path d="M470.64 29.51C469.037 31.1173 467.132 32.3925 465.035 33.2627C462.938 34.1328 460.69 34.5807 458.42 34.5807C456.15 34.5807 453.902 34.1328 451.805 33.2627C449.708 32.3925 447.803 31.1173 446.2 29.51C444.563 27.9291 443.268 26.0286 442.396 23.9265C441.524 21.8244 441.093 19.5655 441.13 17.29C441.09 15.0248 441.508 12.7749 442.359 10.6751C443.209 8.57527 444.475 6.66881 446.08 5.06996C449.343 1.82371 453.758 0.00134277 458.36 0.00134277C462.962 0.00134277 467.378 1.82371 470.64 5.06996C472.273 6.65409 473.565 8.55514 474.437 10.6565C475.309 12.7578 475.742 15.0152 475.71 17.29C475.742 19.5649 475.309 21.8223 474.438 23.9238C473.566 26.0252 472.273 27.9262 470.64 29.51V29.51Z" fill="#00A199"/>
<path d="M126.54 53V63.24C117.889 57.2662 107.77 53.7721 97.2761 53.1357C86.7826 52.4993 76.3148 54.7449 67.0056 59.6295C57.6965 64.5141 49.9004 71.8517 44.4613 80.8481C39.0221 89.8445 36.147 100.157 36.147 110.67C36.147 121.183 39.0221 131.495 44.4613 140.492C49.9004 149.488 57.6965 156.826 67.0056 161.71C76.3148 166.595 86.7826 168.841 97.2761 168.204C107.77 167.568 117.889 164.074 126.54 158.1V168.31H151.44V53H126.54ZM93.8001 143.39C87.3287 143.39 81.0026 141.471 75.6218 137.876C70.241 134.28 66.0472 129.17 63.5707 123.191C61.0942 117.213 60.4463 110.634 61.7088 104.287C62.9713 97.9396 66.0876 92.1094 70.6635 87.5335C75.2395 82.9575 81.0696 79.8412 87.4167 78.5787C93.7638 77.3162 100.343 77.9642 106.321 80.4407C112.3 82.9172 117.41 87.111 121.006 92.4917C124.601 97.8725 126.52 104.199 126.52 110.67C126.509 119.345 123.059 127.661 116.925 133.795C110.791 139.929 102.475 143.379 93.8001 143.39V143.39Z" fill="white"/>
<path d="M111.37 25.13C111.434 27.44 111.023 29.7386 110.163 31.8835C109.303 34.0284 108.012 35.974 106.37 37.6C105.593 38.3966 104.75 39.1259 103.85 39.78C104.823 38.0632 105.333 36.1231 105.33 34.15C105.315 32.8065 105.04 31.4787 104.52 30.24C104.285 29.5905 103.983 28.9672 103.62 28.38V28.32C103.001 27.2585 102.288 26.2545 101.49 25.32C97.4899 20.56 94.8199 20.56 93.9399 20.56C93.0599 20.56 90.3999 20.56 86.3899 25.32C85.7138 26.1193 85.0987 26.9684 84.5499 27.86V27.86C84.0167 28.6399 83.5896 29.4873 83.2799 30.38C83.274 30.4029 83.274 30.427 83.2799 30.45C82.8074 31.6307 82.5566 32.8883 82.5399 34.16C82.5367 36.2396 83.104 38.2803 84.1799 40.06C83.2587 39.4494 82.3921 38.7602 81.5899 38C79.9064 36.4179 78.5648 34.5075 77.6481 32.3869C76.7314 30.2663 76.259 27.9803 76.2599 25.67C76.1886 23.3721 76.5813 21.0835 77.4147 18.9409C78.248 16.7983 79.5048 14.8457 81.1099 13.2C84.3626 9.85545 88.8076 7.93564 93.4723 7.86068C98.1371 7.78571 102.642 9.56169 106 12.8C107.691 14.3786 109.04 16.2873 109.963 18.4081C110.887 20.529 111.366 22.8167 111.37 25.13V25.13Z" fill="white"/>
<path d="M100.22 34.1499C100.22 34.9746 100.058 35.7913 99.7421 36.5532C99.4265 37.3151 98.9639 38.0074 98.3808 38.5906C97.7976 39.1737 97.1053 39.6363 96.3434 39.9519C95.5815 40.2675 94.7649 40.4299 93.9402 40.4299C93.1155 40.4299 92.2988 40.2675 91.5369 39.9519C90.775 39.6363 90.0827 39.1737 89.4995 38.5906C88.9164 38.0074 88.4538 37.3151 88.1382 36.5532C87.8226 35.7913 87.6602 34.9746 87.6602 34.1499C87.6602 30.6799 92.6602 25.6899 93.9402 25.6899C95.2202 25.6899 100.22 30.6799 100.22 34.1499Z" fill="#00A199"/>
<path d="M65.2201 28.53C66.4359 30.4926 67.2348 32.6845 67.5668 34.9692C67.8988 37.2539 67.757 39.5825 67.1501 41.81C66.8837 42.9041 66.5188 43.9717 66.06 45C66.0467 43.0256 65.5194 41.0887 64.53 39.38C63.8459 38.2173 62.9426 37.1984 61.87 36.38C61.3421 35.9319 60.769 35.5398 60.16 35.21H60.1C59.0345 34.5988 57.9168 34.0835 56.76 33.67C50.91 31.54 48.6 32.88 47.84 33.32C47.08 33.76 44.76 35.09 43.68 41.22C43.4904 42.2501 43.38 43.2931 43.35 44.34V44.34C43.2808 45.2834 43.3379 46.2318 43.52 47.16C43.5154 47.1798 43.5154 47.2003 43.52 47.22C43.6971 48.4828 44.1111 49.7008 44.7401 50.81C45.7751 52.6116 47.2873 54.0927 49.11 55.09C48.0037 55.0123 46.9062 54.8383 45.8301 54.57C43.5843 54.0381 41.4703 53.0545 39.617 51.6792C37.7636 50.3038 36.2098 48.5654 35.05 46.57C33.8471 44.6114 33.0502 42.4309 32.7066 40.1581C32.363 37.8854 32.4798 35.5668 33.05 33.34C33.5789 31.0693 34.5737 28.9332 35.9715 27.0672C37.3693 25.2011 39.1396 23.6459 41.17 22.5C43.136 21.2877 45.3291 20.4903 47.6146 20.1567C49.9 19.823 52.2296 19.9603 54.46 20.56C56.7015 21.0865 58.8119 22.0649 60.662 23.4353C62.5122 24.8058 64.0632 26.5394 65.2201 28.53V28.53Z" fill="white"/>
<path d="M60.08 41.9201C60.4924 42.6344 60.76 43.4231 60.8675 44.2409C60.9751 45.0587 60.9206 45.8897 60.707 46.6864C60.4934 47.4831 60.125 48.23 59.6228 48.8843C59.1206 49.5387 58.4944 50.0877 57.78 50.5001C57.0656 50.9124 56.277 51.18 55.4592 51.2876C54.6414 51.3952 53.8104 51.3406 53.0137 51.127C52.2169 50.9135 51.4701 50.545 50.8157 50.0428C50.1614 49.5406 49.6124 48.9144 49.2 48.2001C47.47 45.2001 49.32 38.3601 50.41 37.7301C51.5 37.1001 58.34 38.9201 60.08 41.9201Z" fill="#00A199"/>
<path d="M26.23 54C28.2641 55.0928 30.0516 56.5925 31.4812 58.4058C32.9108 60.219 33.952 62.3071 34.54 64.54C34.85 65.6118 35.0608 66.7097 35.17 67.82C34.1595 66.1171 32.7222 64.7073 31 63.73C29.8273 63.0769 28.5412 62.6527 27.21 62.48C26.5269 62.3598 25.8333 62.3095 25.14 62.33C25.14 62.33 25.14 62.33 25.08 62.33C23.8492 62.3372 22.6213 62.451 21.41 62.67C15.28 63.75 13.95 66.06 13.51 66.82C13.07 67.58 11.73 69.9 13.86 75.75C14.2154 76.7321 14.6398 77.6878 15.13 78.61V78.61C15.5464 79.4791 16.0852 80.2839 16.73 81C17.5183 82.0014 18.4845 82.8489 19.58 83.5C21.3913 84.5468 23.4591 85.0664 25.55 85C24.5547 85.4867 23.5171 85.8817 22.45 86.18C20.2419 86.8539 17.9191 87.0684 15.6248 86.8105C13.3306 86.5525 11.1134 85.8275 9.11004 84.68C7.08493 83.5902 5.29954 82.1044 3.85997 80.3109C2.42039 78.5175 1.356 76.4529 0.73004 74.24C0.0525895 72.0088 -0.154111 69.6612 0.12303 67.346C0.400171 65.0307 1.15511 62.7983 2.34004 60.79C3.43769 58.7567 4.93996 56.9695 6.75435 55.5386C8.56873 54.1078 10.6568 53.0635 12.89 52.47C15.1003 51.8012 17.4241 51.5919 19.7183 51.8551C22.0125 52.1182 24.2286 52.8482 26.23 54V54Z" fill="white"/>
<path d="M28.4701 68.19C29.2116 68.5876 29.8657 69.1303 30.3935 69.7856C30.9213 70.441 31.3119 71.1957 31.5423 72.005C31.7727 72.8143 31.8381 73.6616 31.7347 74.4967C31.6312 75.3318 31.361 76.1375 30.9401 76.8661C30.5191 77.5947 29.9561 78.2313 29.2843 78.738C28.6126 79.2447 27.8458 79.6113 27.0297 79.816C26.2135 80.0206 25.3645 80.0591 24.5331 79.9293C23.7018 79.7994 22.905 79.5038 22.1901 79.06C19.1901 77.33 17.3701 70.49 18.0001 69.4C18.6301 68.31 25.4701 66.45 28.4701 68.19Z" fill="#00A199"/>
</g>
<defs>
<clipPath id="clip0">
<rect width="1249.09" height="214.42" fill="white"/>
</clipPath>
</defs>
</svg>
