<?xml version="1.0" encoding="utf-8"?>
<!-- Generator: Adobe Illustrator 26.0.0, SVG Export Plug-In . SVG Version: 6.00 Build 0)  -->
<svg version="1.1" id="Calque_1" xmlns="http://www.w3.org/2000/svg" xmlns:xlink="http://www.w3.org/1999/xlink" x="0px" y="0px"
	 viewBox="0 0 2500 1400" style="enable-background:new 0 0 2500 1400;" xml:space="preserve">
<style type="text/css">
	.st0{fill:url(#SVGID_1_);}
	.st1{fill:url(#SVGID_00000017511305698385079470000005058400684049754509_);}
	.st2{opacity:0.24;fill:#8D20C6;enable-background:new    ;}
</style>
<g id="deuxième_plan">
	<g>
		
			<radialGradient id="SVGID_1_" cx="813.6033" cy="-178.8609" r="687.0175" gradientTransform="matrix(1 0 0 -1 0 1397.89)" gradientUnits="userSpaceOnUse">
			<stop  offset="0" style="stop-color:#2C1051"/>
			<stop  offset="1" style="stop-color:#1E0B39"/>
		</radialGradient>
		<polygon class="st0" points="2520.5,1151.8 2520.4,1160.8 2517,1420.5 1742,1415.4 1703.9,1415.2 2232.5,1222 2466.1,1153.5 		"/>
		
			<radialGradient id="SVGID_00000038372894355370433820000015144554199786264461_" cx="813.6059" cy="-178.8626" r="687.012" gradientTransform="matrix(1 0 0 -1 0 1397.89)" gradientUnits="userSpaceOnUse">
			<stop  offset="0" style="stop-color:#2C1051"/>
			<stop  offset="1" style="stop-color:#1E0B39"/>
		</radialGradient>
		<polygon style="fill:url(#SVGID_00000038372894355370433820000015144554199786264461_);" points="924.2,1411.7 907.8,1411.7 
			-20.5,1409.9 -20.5,1146.5 188.4,1176.4 674.9,1329.2 750.4,1334.4 		"/>
		<g>
			<g>
				<path class="st2" d="M750.4,1334.4l173.8,77.3l-16.4,0l-147.5-66.8l-79-7l2.6,8.8l-13.2-10.5l-246.7-79c0,0,36,29.8,37.8,33.4
					c1.8,3.5-45.7-28.1-45.7-28.1l-86.1-28.1c0,0-136.1-45.7-138.7-47.4c-2.2-1.5-162.2-23-211.9-29.7v-10.6l209,29.9l486.4,152.8
					L750.4,1334.4z"/>
			</g>
			<g>
				<polygon class="st2" points="2520.5,1151.8 2520.4,1160.8 2468.2,1161.3 2436.6,1171.8 2237.2,1230.7 1810.5,1386.1 
					1742,1415.4 1703.9,1415.2 2232.5,1222 2466.1,1153.5 				"/>
			</g>
		</g>
	</g>
</g>
</svg>
