<?xml version="1.0" encoding="utf-8"?>
<!-- Generator: Adobe Illustrator 25.2.1, SVG Export Plug-In . SVG Version: 6.00 Build 0)  -->
<svg version="1.1" id="Calque_1" xmlns="http://www.w3.org/2000/svg" xmlns:xlink="http://www.w3.org/1999/xlink" x="0px" y="0px"
	 viewBox="0 0 2500 1400" style="enable-background:new 0 0 2500 1400;" xml:space="preserve">
<style type="text/css">
	.st0{fill:url(#SVGID_1_);}
	.st1{fill:url(#SVGID_2_);}
	.st2{opacity:0.24;fill:#F9F9F9;enable-background:new    ;}
</style>
<g>
	
		<radialGradient id="SVGID_1_" cx="2152.8154" cy="1251.0731" r="516.9165" fx="1668.4198" fy="1431.5267" gradientUnits="userSpaceOnUse">
		<stop  offset="0.111" style="stop-color:#F5FBFA"/>
		<stop  offset="0.5803" style="stop-color:#8AE0DB"/>
	</radialGradient>
	<polygon class="st0" points="2520.5,1151.8 2520.4,1160.8 2517,1420.5 1742,1415.4 1703.9,1415.2 2232.5,1222 2466.1,1153.5 	"/>
	
		<radialGradient id="SVGID_2_" cx="330.0038" cy="1382.4846" r="496.0336" gradientTransform="matrix(0.9883 0.1526 -0.1114 0.7209 157.8116 335.4512)" gradientUnits="userSpaceOnUse">
		<stop  offset="0.1513" style="stop-color:#8AE0DB"/>
		<stop  offset="0.3477" style="stop-color:#8EE1DC"/>
		<stop  offset="0.5303" style="stop-color:#99E3DF"/>
		<stop  offset="0.7074" style="stop-color:#ACE7E4"/>
		<stop  offset="0.88" style="stop-color:#C6ECEA"/>
		<stop  offset="1" style="stop-color:#DDF1F0"/>
	</radialGradient>
	<polygon class="st1" points="924.2,1411.7 907.8,1411.7 -20.5,1409.9 -20.5,1146.5 188.4,1176.4 674.9,1329.2 750.4,1334.4 	"/>
	<g>
		<g>
			<path class="st2" d="M750.4,1334.4l173.8,77.3h-16.4l-147.5-66.8l-79-7l2.6,8.8l-13.2-10.5l-246.7-79c0,0,36,29.8,37.8,33.4
				c1.8,3.5-45.7-28.1-45.7-28.1l-86.1-28.1c0,0-136.1-45.7-138.7-47.4c-2.2-1.5-162.2-23-211.9-29.7v-10.6l209,29.9l486.4,152.8
				L750.4,1334.4z"/>
		</g>
		<g>
			<polygon class="st2" points="2520.5,1151.8 2520.4,1160.8 2468.2,1161.3 2436.6,1171.8 2237.2,1230.7 1810.5,1386.1 1742,1415.4 
				1703.9,1415.2 2232.5,1222 2466.1,1153.5 			"/>
		</g>
	</g>
</g>
</svg>
