<?xml version="1.0" encoding="utf-8"?>
<!-- Generator: Adobe Illustrator 26.0.0, SVG Export Plug-In . SVG Version: 6.00 Build 0)  -->
<svg version="1.1" id="Calque_1" xmlns="http://www.w3.org/2000/svg" xmlns:xlink="http://www.w3.org/1999/xlink" x="0px" y="0px"
	 viewBox="0 0 2500 1400" style="enable-background:new 0 0 2500 1400;" xml:space="preserve">
<style type="text/css">
	.st0{fill:url(#SVGID_1_);}
	.st1{opacity:0.24;fill:#7D09AD;enable-background:new    ;}
</style>
<radialGradient id="SVGID_1_" cx="1280.0308" cy="402.8652" r="3290.3169" fx="1274.2761" fy="406.301" gradientTransform="matrix(0.9978 -6.700000e-02 -3.350000e-02 -0.4989 -4.4352 1686.0872)" gradientUnits="userSpaceOnUse">
	<stop  offset="0" style="stop-color:#C443F1"/>
	<stop  offset="8.290000e-02" style="stop-color:#9731CC"/>
	<stop  offset="0.1892" style="stop-color:#7726AD"/>
	<stop  offset="0.2928" style="stop-color:#5B1E8C"/>
	<stop  offset="0.4015" style="stop-color:#43196E"/>
	<stop  offset="0.545" style="stop-color:#331459"/>
	<stop  offset="0.648" style="stop-color:#300D4D"/>
</radialGradient>
<polygon class="st0" points="2517.9,1417.7 -16.1,1417.7 -17.9,938.3 146.6,807.2 147.1,807.4 229.7,841.1 435.8,1082.3 
	613.7,1071.7 780,1200.5 1146.4,1322.3 1389.9,1325.8 1618.8,1273.7 1831.3,1078.8 2012.2,1010.3 2154.4,813.6 2155.6,814 
	2238.7,845.2 2516.1,882.1 "/>
<g>
	<path class="st1" d="M2243.4,871.5l-25.5,1.8l-34.2,6.2l-30.7,37.8l-68.5,83.4c0,0-21.9,1.8-20.2-1.8c1.8-3.5,37.8-49.2,37.8-49.2
		s-19.3-6.1-21.9-4.4c-2.6,1.8-50.9,84.3-50.9,84.3l-95.7,30.7l37.8,15.8l-45.7-6.1c0,0-79,14.9-81.7,14
		c-2.6-0.9-49.2,36.9-50.9,40.4c-1.7,3.5-60.5,69.2-61.4,70.2l42.1-21.1l51.8,8.8l52.7-10.5l-44.8,21.1l-50.1,2.6l-97.5,40.4
		l-54.7,44.8c0,0-91.3,18.7-94.2,19.9c-2.9,1.2-127.6,31.6-127.6,31.6l-69.1,15.8l35.1-16.4H1140l-361.2-120l-21.7-0.3l-25.2,6.7
		l21.1-11.7l20.8-2.1l-42.7-36.6l-35.4-19l-52.4-11.7l-35.1,11.4l29.3-15.5l11.4-2.9l32.8,6.7c0,0-58.2-48.3-58.2-49.2
		c0-0.9-24.6-4.4-24.6-4.4l19.3,13.2c0,0,21.1,26.9,19.6,25.5c-1.5-1.5-1.5,4.4-1.8,3.5c-0.3-0.9-22.8-23.4-24-24.3
		c-1.2-0.9-34.8-19-34.8-19l-126.7,11.7l23.7,27.2l38.6,4.4l38.6,31.6l-43.9-21.9l-38.6-5.3l-42.1-43l-128.2-151l-38.6-26.3
		c0.6,1,38.6,61.5,41.3,63.2c2.6,1.8,17.6,41.3,17.6,41.3s-12.3,3.5-13.2-0.9c-0.9-4.4-36-67.6-38.6-69.4
		c-2.6-1.8-34.2-48.3-34.2-48.3l29,2.6l-29-43L151,823.2l51.8,43l19.3,29.8l-46.5-41.3l-53.6-14l25.1-33.4l82.6,33.7l206.1,241.2
		l178-10.5L780,1200.5l366.4,121.8l243.5,3.5l228.9-52.1l212.5-194.9l180.9-68.5l142.2-196.7l1.2,0.5l2.6,9.2l-29,61.5l-3.5,13.2
		l14.9-0.9l29.9-26.3l41.3-7L2243.4,871.5z"/>
</g>
</svg>
