<?xml version="1.0" encoding="utf-8"?>
<!-- Generator: Adobe Illustrator 25.2.1, SVG Export Plug-In . SVG Version: 6.00 Build 0)  -->
<svg version="1.1" id="Calque_1" xmlns="http://www.w3.org/2000/svg" xmlns:xlink="http://www.w3.org/1999/xlink" x="0px" y="0px"
	 viewBox="0 0 1366 768" style="enable-background:new 0 0 1366 768;" xml:space="preserve">
<style type="text/css">
	.st0{fill:#FFFFFF;}
	.st1{fill:#521D6B;}
	.st2{fill:#1EACA6;}
	.st3{fill:url(#SVGID_1_);}
	.st4{fill:url(#SVGID_2_);}
</style>
<g>
	<path class="st0" d="M-59.35,364.68h-26.03c-0.49,0-0.88-0.39-0.88-0.88v-26.03c0-0.49,0.39-0.88,0.88-0.88h26.03
		c0.49,0,0.88,0.39,0.88,0.88v26.03C-58.47,364.29-58.86,364.68-59.35,364.68z"/>
	<path class="st1" d="M-59.35,398.31h-26.03c-0.49,0-0.88-0.39-0.88-0.88V371.4c0-0.49,0.39-0.88,0.88-0.88h26.03
		c0.49,0,0.88,0.39,0.88,0.88v26.03C-58.47,397.92-58.86,398.31-59.35,398.31z"/>
	<path class="st2" d="M-59.35,432.85h-26.03c-0.49,0-0.88-0.39-0.88-0.88v-26.03c0-0.49,0.39-0.88,0.88-0.88h26.03
		c0.49,0,0.88,0.39,0.88,0.88v26.03C-58.47,432.46-58.86,432.85-59.35,432.85z"/>
	
		<linearGradient id="SVGID_1_" gradientUnits="userSpaceOnUse" x1="-41.3108" y1="166.3257" x2="-13.5216" y2="166.3257" gradientTransform="matrix(0 -1 1 0 -238.6894 432.4662)">
		<stop  offset="0" style="stop-color:#652682"/>
		<stop  offset="0.5329" style="stop-color:#466E90"/>
		<stop  offset="1" style="stop-color:#2AB19E"/>
	</linearGradient>
	<path class="st3" d="M-58.47,446.87v26.03c0,0.49-0.39,0.88-0.88,0.88h-26.03c-0.49,0-0.88-0.39-0.88-0.88v-26.03
		c0-0.49,0.39-0.88,0.88-0.88h26.03C-58.86,445.99-58.47,446.38-58.47,446.87z"/>
</g>
<rect class="st0" width="1366" height="768"/>
<radialGradient id="SVGID_2_" cx="696.0909" cy="614.7273" r="1376.8186" gradientUnits="userSpaceOnUse">
	<stop  offset="0" style="stop-color:#FFFFFF;stop-opacity:0.1"/>
	<stop  offset="0.0905" style="stop-color:#DFF3F2;stop-opacity:0.1366"/>
	<stop  offset="0.269" style="stop-color:#A5DEDB;stop-opacity:0.2087"/>
	<stop  offset="0.4418" style="stop-color:#75CCC8;stop-opacity:0.2786"/>
	<stop  offset="0.6044" style="stop-color:#4FBEB9;stop-opacity:0.3443"/>
	<stop  offset="0.7545" style="stop-color:#34B4AF;stop-opacity:0.405"/>
	<stop  offset="0.8875" style="stop-color:#24AEA8;stop-opacity:0.4587"/>
	<stop  offset="0.9896" style="stop-color:#1EACA6;stop-opacity:0.5"/>
</radialGradient>
<rect class="st4" width="1366" height="768"/>
<path class="st0" d="M683.5,301.84H568.95c2-0.27,5.16-0.91,8.49-2.76c5.92-3.29,6.11-6.89,10.33-8.8
	c5.65-2.56,8.58,2.44,17.59,2.35c9.33-0.09,10.85-5.5,19.58-6.29c8.29-0.74,13.44,3.08,21.46,7.58
	C653.87,298.12,665.53,302.37,683.5,301.84z"/>
<path class="st0" d="M317.76,488.12h211.39c-3.7-0.49-9.52-1.69-15.67-5.1c-10.93-6.07-11.28-12.71-19.06-16.23
	c-10.43-4.72-15.83,4.51-32.46,4.34c-17.22-0.17-20.03-10.16-36.14-11.6c-15.3-1.37-24.8,5.68-39.6,13.99
	C372.44,481.25,350.92,489.1,317.76,488.12z"/>
<path class="st0" d="M949.18,426.73H834.63c2-0.27,5.16-0.91,8.49-2.76c5.92-3.29,6.11-6.89,10.33-8.8
	c5.65-2.56,8.58,2.44,17.59,2.35c9.33-0.09,10.85-5.5,19.58-6.29c8.29-0.74,13.44,3.08,21.46,7.58
	C919.55,423.01,931.21,427.26,949.18,426.73z"/>
</svg>
